<?xml version="1.0" standalone="no"?>
<!DOCTYPE svg PUBLIC "-//W3C//DTD SVG 20010904//EN"
 "http://www.w3.org/TR/2001/REC-SVG-20010904/DTD/svg10.dtd">
<svg version="1.0" xmlns="http://www.w3.org/2000/svg"
 width="251.000000pt" height="201.000000pt" viewBox="0 0 251.000000 201.000000"
 preserveAspectRatio="xMidYMid meet">

<g transform="translate(0.000000,201.000000) scale(0.100000,-0.100000)"
fill="#000000" stroke="none">
<path d="M316 1684 c-12 -18 -25 -24 -38 -21 -14 4 -18 2 -14 -9 4 -10 -3 -14
-29 -14 -19 0 -35 -4 -35 -10 0 -5 5 -10 10 -10 6 0 22 -12 35 -26 18 -20 25
-38 25 -69 0 -41 1 -43 37 -48 20 -4 42 -2 49 4 7 6 27 9 45 7 37 -3 47 12 24
36 -10 10 -12 16 -5 16 8 0 10 9 6 24 -4 15 0 28 9 36 24 20 18 49 -11 60 -15
6 -38 19 -52 30 -31 25 -33 25 -56 -6z"/>
<path d="M1770 1550 c0 -143 1 -150 20 -150 19 0 20 7 20 150 0 143 -1 150
-20 150 -19 0 -20 -7 -20 -150z"/>
<path d="M1957 1653 c-4 -3 -7 -62 -7 -130 0 -116 1 -123 20 -123 19 0 20 7
20 130 0 102 -3 130 -13 130 -8 0 -17 -3 -20 -7z"/>
<path d="M610 1630 c0 -5 5 -10 11 -10 5 0 7 5 4 10 -3 6 -8 10 -11 10 -2 0
-4 -4 -4 -10z"/>
<path d="M580 1600 c-12 -23 -3 -25 23 -6 15 12 15 14 2 19 -9 4 -19 -2 -25
-13z"/>
<path d="M2321 1510 c-1 -103 0 -110 19 -110 11 0 20 3 21 8 0 4 1 53 3 110 3
100 2 102 -20 102 -22 0 -23 -3 -23 -110z"/>
<path d="M1276 1547 c3 -10 9 -15 12 -12 3 3 0 11 -7 18 -10 9 -11 8 -5 -6z"/>
<path d="M1209 1538 c-1 -2 -3 -13 -4 -24 -2 -17 2 -20 19 -16 18 5 18 7 4 10
-10 2 -18 8 -18 13 0 6 5 7 12 3 7 -4 8 -3 4 4 -7 11 -14 15 -17 10z"/>
<path d="M1245 1530 c3 -5 8 -10 11 -10 2 0 4 5 4 10 0 6 -5 10 -11 10 -5 0
-7 -4 -4 -10z"/>
<path d="M2140 1470 c0 -63 2 -70 20 -70 18 0 20 7 20 70 0 63 -2 70 -20 70
-18 0 -20 -7 -20 -70z"/>
<path d="M470 1454 c0 -8 5 -12 10 -9 6 4 8 11 5 16 -9 14 -15 11 -15 -7z"/>
<path d="M580 1120 c0 -57 2 -61 21 -58 19 3 22 10 23 58 1 50 -1 55 -21 58
-22 3 -23 0 -23 -58z"/>
<path d="M910 1095 l0 -25 180 0 180 0 0 25 0 25 -180 0 -180 0 0 -25z"/>
<path d="M580 990 c0 -52 2 -60 19 -60 24 0 28 14 23 73 -3 38 -8 47 -23 47
-17 0 -19 -8 -19 -60z"/>
<path d="M690 991 c0 -48 3 -60 18 -64 16 -4 16 -5 0 -6 -15 -1 -18 -11 -18
-56 0 -48 2 -55 20 -55 19 0 20 7 20 120 0 113 -1 120 -20 120 -18 0 -20 -7
-20 -59z"/>
<path d="M910 955 l0 -25 290 0 290 0 0 25 0 25 -290 0 -290 0 0 -25z"/>
<path d="M370 795 c0 -118 1 -125 20 -125 18 0 19 7 19 125 0 117 -1 125 -19
125 -19 0 -20 -8 -20 -125z"/>
<path d="M480 865 c0 -30 5 -55 10 -55 6 0 10 -5 10 -11 0 -5 -4 -8 -9 -5 -5
4 -11 -23 -13 -59 -3 -62 -2 -65 19 -65 22 0 22 2 22 125 0 117 -1 125 -19
125 -17 0 -20 -7 -20 -55z"/>
<path d="M580 865 c0 -52 1 -55 25 -55 24 0 25 2 23 55 -3 49 -5 55 -25 55
-21 0 -23 -5 -23 -55z"/>
<path d="M2010 800 c0 -49 4 -90 9 -90 15 0 20 30 19 108 0 54 -4 72 -14 72
-11 0 -14 -20 -14 -90z"/>
<path d="M2381 795 c-2 -71 1 -85 13 -85 13 0 16 15 16 85 0 65 -3 85 -14 85
-10 0 -14 -21 -15 -85z"/>
<path d="M2200 790 c0 -47 4 -80 10 -80 6 0 10 33 10 80 0 47 -4 80 -10 80 -6
0 -10 -33 -10 -80z"/>
<path d="M1058 832 c-140 -2 -148 -4 -148 -22 0 -19 7 -20 155 -20 147 0 155
1 155 19 0 11 -3 21 -7 23 -5 2 -74 2 -155 0z"/>
<path d="M1830 765 c0 -30 5 -55 10 -55 6 0 10 25 10 55 0 30 -4 55 -10 55 -5
0 -10 -25 -10 -55z"/>
<path d="M1901 788 c1 -18 5 -44 9 -58 6 -19 8 -11 9 33 1 32 -3 57 -9 57 -5
0 -10 -15 -9 -32z"/>
<path d="M50 735 c0 -58 2 -65 20 -65 18 0 20 7 20 65 0 58 -2 65 -20 65 -18
0 -20 -7 -20 -65z"/>
<path d="M160 735 c0 -58 2 -65 20 -65 18 0 20 7 20 65 0 58 -2 65 -20 65 -18
0 -20 -7 -20 -65z"/>
<path d="M265 788 c-2 -7 -4 -37 -2 -65 2 -46 5 -53 22 -53 19 0 21 6 20 62 0
52 -3 63 -18 66 -9 2 -19 -2 -22 -10z"/>
<path d="M580 735 c0 -61 1 -65 23 -65 20 0 23 5 21 33 -1 17 -2 47 -3 65 -1
25 -5 32 -21 32 -18 0 -20 -7 -20 -65z"/>
<path d="M688 735 c-3 -62 -2 -65 20 -65 21 0 22 4 22 65 0 57 -2 65 -19 65
-17 0 -20 -9 -23 -65z"/>
<path d="M2080 738 c0 -36 10 -32 14 6 2 14 -1 26 -5 26 -5 0 -9 -14 -9 -32z"/>
<path d="M2450 749 c0 -5 5 -7 10 -4 6 3 10 8 10 11 0 2 -4 4 -10 4 -5 0 -10
-5 -10 -11z"/>
<path d="M1760 725 c0 -8 5 -15 10 -15 6 0 10 7 10 15 0 8 -4 15 -10 15 -5 0
-10 -7 -10 -15z"/>
<path d="M1942 728 c6 -18 28 -21 28 -4 0 9 -7 16 -16 16 -9 0 -14 -5 -12 -12z"/>
<path d="M2130 725 c0 -8 4 -15 9 -15 5 0 11 7 15 15 3 9 0 15 -9 15 -8 0 -15
-7 -15 -15z"/>
<path d="M2320 725 c0 -8 5 -15 10 -15 6 0 10 7 10 15 0 8 -4 15 -10 15 -5 0
-10 -7 -10 -15z"/>
</g>
</svg>
